<svg version="1.1" id="Layer_1" xmlns="http://www.w3.org/2000/svg" xmlns:xlink="http://www.w3.org/1999/xlink" x="0px" y="0px"
	 width="100%" viewBox="0 0 707 273" enable-background="new 0 0 707 273" xml:space="preserve">
<path fill="#FFFFFF" opacity="1.000000" stroke="none" 
	d="
M446.000000,274.000000 
	C297.333374,274.000000 149.166733,274.000000 1.000079,274.000000 
	C1.000053,183.000061 1.000053,92.000114 1.000026,1.000128 
	C236.666550,1.000086 472.333099,1.000086 707.999756,1.000043 
	C707.999817,91.999870 707.999817,182.999741 707.999878,273.999817 
	C620.833313,274.000000 533.666687,274.000000 446.000000,274.000000 
M176.487244,136.883316 
	C176.777283,136.669922 176.909119,136.383682 177.224762,135.476791 
	C177.565643,134.699707 177.906525,133.922607 178.775452,132.733917 
	C180.198288,130.164703 181.621124,127.595482 183.570145,124.595940 
	C185.709946,120.729248 187.849747,116.862564 190.517105,112.568848 
	C192.341858,109.403008 194.064438,106.172852 196.009521,103.082764 
	C203.316162,91.474976 204.040771,79.210510 198.649323,66.907539 
	C189.662704,46.400642 167.696045,39.769485 149.095993,47.699921 
	C145.368057,50.089294 141.640137,52.478668 137.292923,55.140324 
	C135.146454,58.081135 132.999985,61.021946 130.309036,64.340698 
	C128.874329,67.226845 127.439636,70.112991 125.739845,73.622528 
	C122.715065,78.707153 119.690285,83.791786 116.148071,89.262291 
	C114.736916,91.802742 113.325768,94.343185 111.404808,97.355324 
	C109.604683,99.564346 107.804558,101.773369 105.629852,103.517487 
	C104.837822,102.641769 104.045784,101.766045 103.158508,100.194839 
	C102.487709,98.802773 101.816902,97.410706 101.002403,95.345802 
	C100.029633,93.891571 99.056862,92.437340 97.939667,90.312248 
	C95.349098,87.815643 92.758522,85.319046 90.094971,82.847694 
	C90.094971,82.847694 90.128746,82.917137 89.945900,82.397369 
	C89.658539,82.171837 89.371178,81.946304 88.711769,81.170593 
	C86.472099,80.121567 84.232422,79.072540 81.416092,78.021675 
	C81.229012,78.302238 81.041939,78.582802 80.795769,78.794762 
	C80.795769,78.794762 80.705986,78.783066 80.257095,78.304176 
	C78.116905,77.258568 76.067902,75.675011 73.815193,75.293137 
	C70.415024,74.716743 66.862526,74.759071 63.392437,74.919815 
	C37.641014,76.112732 22.368212,105.434158 31.912008,126.813255 
	C33.299740,129.539520 34.687473,132.265793 36.192093,135.603073 
	C37.017090,136.781204 37.842087,137.959351 38.903603,139.793854 
	C40.175629,141.914108 41.447655,144.034378 42.939816,146.814575 
	C44.507706,148.931610 46.075592,151.048645 47.724243,153.165024 
	C47.724243,153.165024 47.795334,153.125153 47.588535,153.614014 
	C47.621849,153.787781 47.655167,153.961548 47.715656,154.860550 
	C48.765388,156.352081 49.815121,157.843628 50.867771,160.035278 
	C52.223270,162.372726 53.578770,164.710159 55.043842,167.730942 
	C56.317791,169.855957 57.591736,171.980988 59.038448,174.781357 
	C62.696560,180.518341 66.354675,186.255310 70.297607,192.647614 
	C77.462311,210.199570 89.567139,219.108810 106.330978,219.168488 
	C123.494690,219.229568 136.207153,210.292542 143.953033,192.931793 
	C146.334808,188.358597 148.716599,183.785385 151.751724,178.995209 
	C152.879089,177.029770 154.006470,175.064346 155.644958,172.657776 
	C158.512985,167.145523 161.381027,161.633255 164.906601,155.962753 
	C166.333878,153.346527 167.761169,150.730316 169.732819,147.729355 
	C171.487015,144.819382 173.241211,141.909424 175.142181,138.713120 
	C175.142181,138.713120 175.120392,138.392075 175.567673,138.035858 
	C175.735046,137.698959 175.902435,137.362076 176.004227,137.008255 
	C176.004227,137.008255 176.032394,137.069839 176.487244,136.883316 
M397.296387,153.562332 
	C393.911560,143.747787 385.152161,142.090897 376.688599,140.084854 
	C371.037140,138.745331 365.291595,137.791779 359.664581,136.364151 
	C356.010406,135.437012 353.272278,133.246155 353.705719,128.942810 
	C354.122192,124.807716 357.356567,123.291000 360.756805,123.111603 
	C369.044495,122.674339 377.358459,122.728317 385.662201,122.606445 
	C388.256958,122.568352 390.852753,122.600494 393.492859,122.600494 
	C393.492859,120.087524 393.492859,117.830200 393.492859,114.868004 
	C383.943024,114.556534 374.666138,113.991249 365.393951,114.060287 
	C360.622803,114.095802 355.728485,114.776337 351.123413,116.026176 
	C343.560883,118.078690 340.215759,122.443161 339.751831,129.389954 
	C339.220947,137.339783 341.743805,141.986221 349.128998,145.270905 
	C352.892761,146.944916 356.984558,147.950439 361.001312,148.969345 
	C366.156189,150.276978 371.447571,151.071274 376.560028,152.512741 
	C380.131348,153.519699 383.711334,155.291656 383.647034,159.789429 
	C383.580353,164.454147 380.149567,166.618835 376.124298,167.107300 
	C370.206604,167.825424 364.206940,168.158081 358.244324,168.133759 
	C352.347321,168.109726 346.453003,167.438705 339.903625,167.008545 
	C341.349640,170.215942 337.698181,174.686829 342.795288,175.351776 
	C356.510254,177.140991 370.321442,178.480072 384.015442,175.094376 
	C395.043274,172.367844 399.246277,165.754272 397.296387,153.562332 
M298.768738,122.875694 
	C310.016388,122.875694 321.264069,122.875694 332.542419,122.875694 
	C332.542419,119.726402 332.542419,117.435852 332.542419,114.860023 
	C317.052795,114.860023 301.768646,114.688980 286.492554,114.964218 
	C281.907318,115.046837 281.328674,119.125313 281.309845,122.750221 
	C281.231842,137.745285 281.203522,152.741455 281.305359,167.736221 
	C281.348572,174.105118 283.382172,175.975235 289.840576,175.998962 
	C302.836456,176.046707 315.832703,176.025482 328.828705,175.995239 
	C330.086151,175.992325 331.342987,175.727066 332.489685,175.596191 
	C332.489685,172.906219 332.489685,170.636993 332.489685,167.892365 
	C330.613220,167.892365 328.985535,167.892853 327.357849,167.892303 
	C318.193970,167.889160 309.026367,168.012619 299.870148,167.746109 
	C298.491486,167.705994 296.074432,165.918823 295.998779,164.812515 
	C295.605682,159.064255 295.815735,153.274780 295.815735,147.051102 
	C307.852936,147.051102 319.267853,147.051102 330.586853,147.051102 
	C330.586853,144.345535 330.586853,142.118881 330.586853,139.375732 
	C318.851227,139.375732 307.459198,139.375732 295.815247,139.375732 
	C295.815247,134.699554 295.668884,130.546127 295.906830,126.414803 
	C295.975830,125.216461 297.145691,124.081505 298.768738,122.875694 
M424.640686,176.021637 
	C427.586700,176.021637 430.532745,176.021637 433.910126,176.021637 
	C433.910126,158.036774 433.910126,140.634827 433.910126,122.874214 
	C440.795898,122.874214 447.234436,122.874214 453.863922,122.874214 
	C453.863922,119.939919 453.863922,117.379265 453.863922,114.873665 
	C435.453094,114.873665 417.369843,114.873665 399.277100,114.873665 
	C399.277100,117.617706 399.277100,120.038872 399.277100,123.049683 
	C406.109985,123.049683 412.665619,123.049683 419.520660,123.049683 
	C419.520660,140.934814 419.520660,158.220520 419.520660,175.741119 
	C421.126892,175.848892 422.415833,175.935379 424.640686,176.021637 
M248.500290,114.631416 
	C238.749741,114.631416 228.999176,114.631416 219.322617,114.631416 
	C219.322617,117.689301 219.322617,120.102951 219.322617,122.904602 
	C226.074966,122.904602 232.502823,122.904602 239.386520,122.904602 
	C239.386520,140.699692 239.386520,158.097519 239.386520,175.707153 
	C244.407166,175.707153 248.954346,175.707153 253.950851,175.707153 
	C253.950851,158.003204 253.950851,140.604645 253.950851,122.812943 
	C260.826447,122.812943 267.258240,122.812943 273.810425,122.812943 
	C273.810425,119.871429 273.810425,117.338020 273.810425,114.631630 
	C265.457275,114.631630 257.478790,114.631630 248.500290,114.631416 
M538.992188,123.035553 
	C552.185547,139.119690 565.459106,155.139175 578.515015,171.334122 
	C581.715271,175.303818 585.272644,176.964859 590.404297,175.580139 
	C590.498657,174.819260 590.683350,174.019653 590.684448,173.219788 
	C590.710083,155.072372 590.716492,136.924942 590.721802,118.777519 
	C590.722046,117.945602 590.924316,116.991760 590.588501,116.315063 
	C590.231750,115.595978 589.341919,114.691284 588.691406,114.696419 
	C588.058411,114.701424 587.089722,115.657806 586.885864,116.372528 
	C586.578674,117.449738 586.809509,118.680084 586.809570,119.845337 
	C586.809814,135.930069 586.809692,152.014801 586.809692,169.495041 
	C584.715576,167.116104 583.423157,165.732086 582.223389,164.271881 
	C569.756653,149.099167 557.225037,133.978516 544.901917,118.689842 
	C541.591797,114.583206 537.766846,113.954735 533.126099,115.054344 
	C533.126099,135.434067 533.126099,155.539291 533.126099,175.690857 
	C536.902344,176.863449 536.918823,174.650330 536.910339,172.099609 
	C536.859009,156.616013 536.847229,141.132019 536.941589,125.648857 
	C536.948181,124.573318 537.919250,123.503654 538.992188,123.035553 
M611.745728,172.005493 
	C611.229248,162.729355 610.712769,153.453232 610.180725,143.898483 
	C613.051453,143.898483 614.697632,143.898712 616.343811,143.898438 
	C626.665771,143.896713 636.988525,143.953369 647.308350,143.804306 
	C648.361694,143.789078 649.397156,142.539291 650.440918,141.862427 
	C649.406494,141.335495 648.419983,140.545670 647.325928,140.346497 
	C645.875549,140.082413 644.341125,140.279022 642.842773,140.278976 
	C632.245056,140.278748 621.647339,140.278854 610.648743,140.278854 
	C610.648743,134.409882 610.896423,129.106155 610.573914,123.837318 
	C610.293457,119.254921 611.873962,117.796654 616.521179,117.921837 
	C628.300110,118.239120 640.093384,118.027184 651.880859,118.027184 
	C652.133850,117.606071 652.386841,117.184959 652.639832,116.763840 
	C651.680908,116.042793 650.726501,114.700981 649.762390,114.693993 
	C635.780273,114.592537 621.792664,114.518494 607.819397,114.906670 
	C606.171448,114.952446 603.233704,117.743294 603.203491,119.306282 
	C602.868713,136.613419 602.867310,153.931686 603.193237,171.239090 
	C603.223389,172.840149 606.087952,175.714462 607.689758,175.752548 
	C622.451843,176.103439 637.225708,175.959427 651.996155,175.959427 
	C652.183777,175.388412 652.371338,174.817398 652.558899,174.246399 
	C651.239258,173.692032 649.926819,172.676010 648.598938,172.655396 
	C636.618530,172.469589 624.635498,172.458221 611.745728,172.005493 
M486.499817,176.025726 
	C493.137207,176.025726 499.774628,176.025726 506.412018,176.025726 
	C506.602600,175.445679 506.793182,174.865646 506.983795,174.285599 
	C505.661835,173.722061 504.346741,172.689423 503.016876,172.669998 
	C493.358185,172.528946 483.693054,172.442245 474.037354,172.661469 
	C469.936066,172.754578 468.515015,171.411041 468.567505,167.224289 
	C468.763794,151.569763 468.637146,135.911194 468.631805,120.254150 
	C468.631195,118.485229 468.631714,116.716316 468.631714,114.831848 
	C465.728607,114.831848 463.477356,114.831848 460.965820,114.831848 
	C460.965820,133.615402 460.979095,152.088821 460.954742,170.562195 
	C460.949768,174.342499 462.861542,176.018692 466.511566,176.016144 
	C472.841003,176.011749 479.170441,176.021759 486.499817,176.025726 
M521.655457,140.500122 
	C521.655457,131.946396 521.655457,123.392654 521.655457,114.956429 
	C518.595886,114.956429 516.373718,114.956429 514.273743,114.956429 
	C514.273743,135.524277 514.273743,155.707489 514.273743,175.671036 
	C516.870483,175.671036 519.111267,175.671036 521.655273,175.671036 
	C521.655273,164.045120 521.655273,152.772629 521.655457,140.500122 
M656.914551,99.489212 
	C654.146240,103.109856 653.936340,106.830528 656.808350,110.429008 
	C659.333923,113.593338 662.890625,113.975487 666.298706,112.553078 
	C670.066589,110.980492 671.629944,107.687523 671.013062,103.590759 
	C670.078369,97.382568 663.747559,95.230545 656.914551,99.489212 
z"/>
<path fill="#6C5EA6" opacity="1.000000" stroke="none" 
	d="
M143.331253,193.156799 
	C136.207153,210.292542 123.494690,219.229568 106.330978,219.168488 
	C89.567139,219.108810 77.462311,210.199570 70.182999,191.894089 
	C68.068405,182.654388 68.752991,174.325790 71.756645,165.880615 
	C74.254044,161.719788 76.531746,157.798798 79.104065,154.096283 
	C80.247833,160.084045 80.560959,165.997726 82.067558,171.589859 
	C84.534843,180.747833 85.649010,190.409683 94.829086,196.709015 
	C100.843773,200.836243 108.173225,202.335953 114.663879,199.040848 
	C122.386642,195.120224 126.515701,188.583450 128.980652,181.012070 
	C131.656525,172.792816 133.270203,164.227768 135.664749,155.921021 
	C138.708267,161.693695 141.434097,167.358871 144.197723,173.430908 
	C143.934113,180.277451 143.632690,186.717117 143.331253,193.156799 
z"/>
<path fill="#60BEEB" opacity="1.000000" stroke="none" 
	d="
M149.814438,47.534260 
	C167.696045,39.769485 189.662704,46.400642 198.649323,66.907539 
	C204.040771,79.210510 203.316162,91.474976 196.009521,103.082764 
	C194.064438,106.172852 192.341858,109.403008 189.912170,112.731766 
	C187.374115,110.267273 185.313400,107.723289 183.531067,104.997284 
	C177.414474,95.642204 171.078247,86.409340 165.428879,76.776184 
	C159.843460,67.252083 154.989349,57.299103 149.814438,47.534260 
z"/>
<path fill="#3C393A" opacity="1.000000" stroke="none" 
	d="
M397.398712,153.959671 
	C399.246277,165.754272 395.043274,172.367844 384.015442,175.094376 
	C370.321442,178.480072 356.510254,177.140991 342.795288,175.351776 
	C337.698181,174.686829 341.349640,170.215942 339.903625,167.008545 
	C346.453003,167.438705 352.347321,168.109726 358.244324,168.133759 
	C364.206940,168.158081 370.206604,167.825424 376.124298,167.107300 
	C380.149567,166.618835 383.580353,164.454147 383.647034,159.789429 
	C383.711334,155.291656 380.131348,153.519699 376.560028,152.512741 
	C371.447571,151.071274 366.156189,150.276978 361.001312,148.969345 
	C356.984558,147.950439 352.892761,146.944916 349.128998,145.270905 
	C341.743805,141.986221 339.220947,137.339783 339.751831,129.389954 
	C340.215759,122.443161 343.560883,118.078690 351.123413,116.026176 
	C355.728485,114.776337 360.622803,114.095802 365.393951,114.060287 
	C374.666138,113.991249 383.943024,114.556534 393.492859,114.868004 
	C393.492859,117.830200 393.492859,120.087524 393.492859,122.600494 
	C390.852753,122.600494 388.256958,122.568352 385.662201,122.606445 
	C377.358459,122.728317 369.044495,122.674339 360.756805,123.111603 
	C357.356567,123.291000 354.122192,124.807716 353.705719,128.942810 
	C353.272278,133.246155 356.010406,135.437012 359.664581,136.364151 
	C365.291595,137.791779 371.037140,138.745331 376.688599,140.084854 
	C385.152161,142.090897 393.911560,143.747787 397.398712,153.959671 
z"/>
<path fill="#3C393A" opacity="1.000000" stroke="none" 
	d="
M298.289825,122.896591 
	C297.145691,124.081505 295.975830,125.216461 295.906830,126.414803 
	C295.668884,130.546127 295.815247,134.699554 295.815247,139.375732 
	C307.459198,139.375732 318.851227,139.375732 330.586853,139.375732 
	C330.586853,142.118881 330.586853,144.345535 330.586853,147.051102 
	C319.267853,147.051102 307.852936,147.051102 295.815735,147.051102 
	C295.815735,153.274780 295.605682,159.064255 295.998779,164.812515 
	C296.074432,165.918823 298.491486,167.705994 299.870148,167.746109 
	C309.026367,168.012619 318.193970,167.889160 327.357849,167.892303 
	C328.985535,167.892853 330.613220,167.892365 332.489685,167.892365 
	C332.489685,170.636993 332.489685,172.906219 332.489685,175.596191 
	C331.342987,175.727066 330.086151,175.992325 328.828705,175.995239 
	C315.832703,176.025482 302.836456,176.046707 289.840576,175.998962 
	C283.382172,175.975235 281.348572,174.105118 281.305359,167.736221 
	C281.203522,152.741455 281.231842,137.745285 281.309845,122.750221 
	C281.328674,119.125313 281.907318,115.046837 286.492554,114.964218 
	C301.768646,114.688980 317.052795,114.860023 332.542419,114.860023 
	C332.542419,117.435852 332.542419,119.726402 332.542419,122.875694 
	C321.264069,122.875694 310.016388,122.875694 298.289825,122.896591 
z"/>
<path fill="#3E3B3C" opacity="1.000000" stroke="none" 
	d="
M424.172729,176.021744 
	C422.415833,175.935379 421.126892,175.848892 419.520660,175.741119 
	C419.520660,158.220520 419.520660,140.934814 419.520660,123.049683 
	C412.665619,123.049683 406.109985,123.049683 399.277100,123.049683 
	C399.277100,120.038872 399.277100,117.617706 399.277100,114.873665 
	C417.369843,114.873665 435.453094,114.873665 453.863922,114.873665 
	C453.863922,117.379265 453.863922,119.939919 453.863922,122.874214 
	C447.234436,122.874214 440.795898,122.874214 433.910126,122.874214 
	C433.910126,140.634827 433.910126,158.036774 433.910126,176.021637 
	C430.532745,176.021637 427.586700,176.021637 424.172729,176.021744 
z"/>
<path fill="#3E3B3C" opacity="1.000000" stroke="none" 
	d="
M249.000305,114.631523 
	C257.478790,114.631630 265.457275,114.631630 273.810425,114.631630 
	C273.810425,117.338020 273.810425,119.871429 273.810425,122.812943 
	C267.258240,122.812943 260.826447,122.812943 253.950851,122.812943 
	C253.950851,140.604645 253.950851,158.003204 253.950851,175.707153 
	C248.954346,175.707153 244.407166,175.707153 239.386520,175.707153 
	C239.386520,158.097519 239.386520,140.699692 239.386520,122.904602 
	C232.502823,122.904602 226.074966,122.904602 219.322617,122.904602 
	C219.322617,120.102951 219.322617,117.689301 219.322617,114.631416 
	C228.999176,114.631416 238.749741,114.631416 249.000305,114.631523 
z"/>
<path fill="#61BFEB" opacity="1.000000" stroke="none" 
	d="
M31.829861,126.092331 
	C22.368212,105.434158 37.641014,76.112732 63.392437,74.919815 
	C66.862526,74.759071 70.415024,74.716743 73.815193,75.293137 
	C76.067902,75.675011 78.116905,77.258568 80.558273,78.926331 
	C80.196022,81.179749 79.971794,83.297272 78.795006,84.360146 
	C72.949341,89.639992 66.756859,94.534134 60.867710,99.767998 
	C52.830566,106.910851 44.960648,114.241776 37.010727,121.482956 
	C35.301956,123.039375 33.557743,124.556892 31.829861,126.092331 
z"/>
<path fill="#423F40" opacity="1.000000" stroke="none" 
	d="
M538.716980,122.733406 
	C537.919250,123.503654 536.948181,124.573318 536.941589,125.648857 
	C536.847229,141.132019 536.859009,156.616013 536.910339,172.099609 
	C536.918823,174.650330 536.902344,176.863449 533.126099,175.690857 
	C533.126099,155.539291 533.126099,135.434067 533.126099,115.054344 
	C537.766846,113.954735 541.591797,114.583206 544.901917,118.689842 
	C557.225037,133.978516 569.756653,149.099167 582.223389,164.271881 
	C583.423157,165.732086 584.715576,167.116104 586.809692,169.495041 
	C586.809692,152.014801 586.809814,135.930069 586.809570,119.845337 
	C586.809509,118.680084 586.578674,117.449738 586.885864,116.372528 
	C587.089722,115.657806 588.058411,114.701424 588.691406,114.696419 
	C589.341919,114.691284 590.231750,115.595978 590.588501,116.315063 
	C590.924316,116.991760 590.722046,117.945602 590.721802,118.777519 
	C590.716492,136.924942 590.710083,155.072372 590.684448,173.219788 
	C590.683350,174.019653 590.498657,174.819260 590.404297,175.580139 
	C585.272644,176.964859 581.715271,175.303818 578.515015,171.334122 
	C565.459106,155.139175 552.185547,139.119690 538.716980,122.733406 
z"/>
<path fill="#423E3F" opacity="1.000000" stroke="none" 
	d="
M612.199463,172.200592 
	C624.635498,172.458221 636.618530,172.469589 648.598938,172.655396 
	C649.926819,172.676010 651.239258,173.692032 652.558899,174.246399 
	C652.371338,174.817398 652.183777,175.388412 651.996155,175.959427 
	C637.225708,175.959427 622.451843,176.103439 607.689758,175.752548 
	C606.087952,175.714462 603.223389,172.840149 603.193237,171.239090 
	C602.867310,153.931686 602.868713,136.613419 603.203491,119.306282 
	C603.233704,117.743294 606.171448,114.952446 607.819397,114.906670 
	C621.792664,114.518494 635.780273,114.592537 649.762390,114.693993 
	C650.726501,114.700981 651.680908,116.042793 652.639832,116.763840 
	C652.386841,117.184959 652.133850,117.606071 651.880859,118.027184 
	C640.093384,118.027184 628.300110,118.239120 616.521179,117.921837 
	C611.873962,117.796654 610.293457,119.254921 610.573914,123.837318 
	C610.896423,129.106155 610.648743,134.409882 610.648743,140.278854 
	C621.647339,140.278854 632.245056,140.278748 642.842773,140.278976 
	C644.341125,140.279022 645.875549,140.082413 647.325928,140.346497 
	C648.419983,140.545670 649.406494,141.335495 650.440918,141.862411 
	C649.397156,142.539291 648.361694,143.789078 647.308350,143.804306 
	C636.988525,143.953369 626.665771,143.896713 616.343811,143.898438 
	C614.697632,143.898712 613.051453,143.898483 610.180725,143.898483 
	C610.712769,153.453232 611.229248,162.729355 612.199463,172.200592 
z"/>
<path fill="#68C1ED" opacity="1.000000" stroke="none" 
	d="
M149.455215,47.617088 
	C154.989349,57.299103 159.843460,67.252083 165.428879,76.776184 
	C171.078247,86.409340 177.414474,95.642204 183.531067,104.997284 
	C185.313400,107.723289 187.374115,110.267273 189.648376,112.945282 
	C187.849747,116.862564 185.709946,120.729248 182.991943,124.670738 
	C180.711563,122.997406 178.616104,121.489143 177.377518,119.458282 
	C172.799423,111.951744 168.659668,104.177330 164.062698,96.682991 
	C158.625961,87.819595 152.845337,79.167831 147.298416,70.370964 
	C145.118179,66.913315 143.193665,63.295338 141.099792,59.781898 
	C140.101013,58.105957 138.978607,56.503685 137.912201,54.868042 
	C141.640137,52.478668 145.368057,50.089294 149.455215,47.617088 
z"/>
<path fill="#84CCEF" opacity="1.000000" stroke="none" 
	d="
M116.665504,88.876411 
	C119.690285,83.791786 122.715065,78.707153 126.204605,73.312996 
	C127.112358,73.003815 127.555344,73.004158 127.992722,73.384300 
	C127.703781,76.176643 126.336937,79.223137 127.316238,80.896950 
	C132.895905,90.433586 139.104538,99.599442 144.967148,108.974014 
	C153.102234,121.982361 161.120300,135.063889 169.188461,148.114090 
	C167.761169,150.730316 166.333878,153.346527 164.209625,155.980057 
	C161.624466,154.230392 159.271149,152.760971 157.920792,150.649979 
	C145.737564,131.604233 133.772324,112.419075 121.602631,93.364548 
	C120.447166,91.555397 118.334030,90.357880 116.665504,88.876411 
z"/>
<path fill="#8FD1F0" opacity="1.000000" stroke="none" 
	d="
M116.406784,89.069351 
	C118.334030,90.357880 120.447166,91.555397 121.602631,93.364548 
	C133.772324,112.419075 145.737564,131.604233 157.920792,150.649979 
	C159.271149,152.760971 161.624466,154.230392 163.880844,156.059174 
	C161.381027,161.633255 158.512985,167.145523 155.124451,172.681656 
	C154.244827,169.772202 154.722458,166.363480 153.374939,163.991714 
	C148.716644,155.792740 143.354248,147.997284 138.385529,139.970428 
	C129.513626,125.638039 120.733253,111.248985 111.914612,96.883629 
	C113.325768,94.343185 114.736916,91.802742 116.406784,89.069351 
z"/>
<path fill="#9BD4F1" opacity="1.000000" stroke="none" 
	d="
M111.659714,97.119476 
	C120.733253,111.248985 129.513626,125.638039 138.385529,139.970428 
	C143.354248,147.997284 148.716644,155.792740 153.374939,163.991714 
	C154.722458,166.363480 154.244827,169.772202 154.868896,172.902222 
	C154.006470,175.064346 152.879089,177.029770 151.271927,178.775543 
	C148.581390,176.711945 146.370651,174.867996 144.159912,173.024048 
	C141.434097,167.358871 138.708267,161.693695 135.625290,155.929230 
	C135.268143,155.829941 135.203156,155.875504 135.258545,155.638458 
	C135.313934,155.401398 135.199600,154.928162 135.165009,154.636597 
	C134.806763,153.879181 134.483093,153.413345 134.091675,152.643890 
	C133.436081,151.509079 132.848221,150.677872 132.176666,149.501312 
	C128.141968,142.410294 124.190979,135.664658 120.127502,128.585068 
	C118.644936,125.876305 117.325958,123.470177 115.894394,121.133018 
	C112.682243,115.888908 109.414146,110.679054 106.117889,105.088135 
	C106.046112,104.474808 106.025276,104.228592 106.004433,103.982384 
	C107.804558,101.773369 109.604683,99.564346 111.659714,97.119476 
z"/>
<path fill="#6FC4ED" opacity="1.000000" stroke="none" 
	d="
M137.602570,55.004181 
	C138.978607,56.503685 140.101013,58.105957 141.099792,59.781898 
	C143.193665,63.295338 145.118179,66.913315 147.298416,70.370964 
	C152.845337,79.167831 158.625961,87.819595 164.062698,96.682991 
	C168.659668,104.177330 172.799423,111.951744 177.377518,119.458282 
	C178.616104,121.489143 180.711563,122.997406 182.728836,124.885895 
	C181.621124,127.595482 180.198288,130.164703 178.209244,132.750519 
	C172.228531,124.742790 166.595795,116.855446 161.452240,108.661026 
	C154.279358,97.233513 147.686050,85.438904 140.389450,74.094193 
	C137.922821,70.259102 134.071838,67.314377 130.853516,63.962757 
	C132.999985,61.021946 135.146454,58.081135 137.602570,55.004181 
z"/>
<path fill="#68C1ED" opacity="1.000000" stroke="none" 
	d="
M31.870934,126.452789 
	C33.557743,124.556892 35.301956,123.039375 37.010727,121.482956 
	C44.960648,114.241776 52.830566,106.910851 60.867710,99.767998 
	C66.756859,94.534134 72.949341,89.639992 78.795006,84.360146 
	C79.971794,83.297272 80.196022,81.179749 80.782715,79.165779 
	C80.705986,78.783066 80.795769,78.794762 81.071404,78.778038 
	C81.562279,78.515381 81.777512,78.269455 81.992752,78.023521 
	C84.232422,79.072540 86.472099,80.121567 88.967911,81.724342 
	C89.525620,82.491112 89.827179,82.704124 90.128746,82.917137 
	C90.128746,82.917137 90.094971,82.847694 90.049744,83.201469 
	C86.587593,87.286957 83.363876,91.220901 79.713684,94.708481 
	C72.010895,102.068108 63.723476,108.847336 56.360092,116.521187 
	C49.987362,123.162628 41.095177,126.948120 36.075207,134.992065 
	C34.687473,132.265793 33.299740,129.539520 31.870934,126.452789 
z"/>
<path fill="#79C9EE" opacity="1.000000" stroke="none" 
	d="
M169.460632,147.921722 
	C161.120300,135.063889 153.102234,121.982361 144.967148,108.974014 
	C139.104538,99.599442 132.895905,90.433586 127.316238,80.896950 
	C126.336937,79.223137 127.703781,76.176643 128.211319,73.116745 
	C130.255188,73.671951 132.731552,74.462555 133.786697,76.144653 
	C140.083115,86.182343 145.948151,96.489410 152.159424,106.582092 
	C158.298553,116.557571 164.617828,126.424400 171.022003,136.231857 
	C171.840271,137.484924 173.646744,138.092712 174.995407,138.999451 
	C173.241211,141.909424 171.487015,144.819382 169.460632,147.921722 
z"/>
<path fill="#403D3E" opacity="1.000000" stroke="none" 
	d="
M485.999847,176.025726 
	C479.170441,176.021759 472.841003,176.011749 466.511566,176.016144 
	C462.861542,176.018692 460.949768,174.342499 460.954742,170.562195 
	C460.979095,152.088821 460.965820,133.615402 460.965820,114.831848 
	C463.477356,114.831848 465.728607,114.831848 468.631714,114.831848 
	C468.631714,116.716316 468.631195,118.485229 468.631805,120.254150 
	C468.637146,135.911194 468.763794,151.569763 468.567505,167.224289 
	C468.515015,171.411041 469.936066,172.754578 474.037354,172.661469 
	C483.693054,172.442245 493.358185,172.528946 503.016876,172.669998 
	C504.346741,172.689423 505.661835,173.722061 506.983795,174.285599 
	C506.793182,174.865646 506.602600,175.445679 506.412018,176.025726 
	C499.774628,176.025726 493.137207,176.025726 485.999847,176.025726 
z"/>
<path fill="#74C6ED" opacity="1.000000" stroke="none" 
	d="
M175.068787,138.856293 
	C173.646744,138.092712 171.840271,137.484924 171.022003,136.231857 
	C164.617828,126.424400 158.298553,116.557571 152.159424,106.582092 
	C145.948151,96.489410 140.083115,86.182343 133.786697,76.144653 
	C132.731552,74.462555 130.255188,73.671951 128.216934,72.736954 
	C127.555344,73.004158 127.112358,73.003815 126.337158,73.001297 
	C127.439636,70.112991 128.874329,67.226845 130.581268,64.151726 
	C134.071838,67.314377 137.922821,70.259102 140.389450,74.094193 
	C147.686050,85.438904 154.279358,97.233513 161.452240,108.661026 
	C166.595795,116.855446 172.228531,124.742790 177.945221,132.956329 
	C177.906525,133.922607 177.565643,134.699707 176.853333,135.869949 
	C176.236908,136.478958 176.087067,136.747864 176.032394,137.069839 
	C176.032394,137.069839 176.004227,137.008255 175.777161,137.159637 
	C175.406860,137.671371 175.263626,138.031723 175.120392,138.392075 
	C175.120392,138.392075 175.142181,138.713120 175.068787,138.856293 
z"/>
<path fill="#6FC4ED" opacity="1.000000" stroke="none" 
	d="
M36.133652,135.297577 
	C41.095177,126.948120 49.987362,123.162628 56.360092,116.521187 
	C63.723476,108.847336 72.010895,102.068108 79.713684,94.708481 
	C83.363876,91.220901 86.587593,87.286957 90.086243,83.188843 
	C92.758522,85.319046 95.349098,87.815643 97.638077,90.655212 
	C96.422859,91.316315 95.300156,91.396248 94.626358,91.987640 
	C80.156891,104.687645 65.812401,117.531204 51.258793,130.133423 
	C47.374859,133.496582 42.880947,136.155319 38.667084,139.137482 
	C37.842087,137.959351 37.017090,136.781204 36.133652,135.297577 
z"/>
<path fill="#7FCBEF" opacity="1.000000" stroke="none" 
	d="
M101.146095,96.018631 
	C101.816902,97.410706 102.487709,98.802773 102.875961,100.695427 
	C99.077248,104.914909 95.789459,108.886955 92.001297,112.304359 
	C81.429077,121.841797 70.681885,131.186661 59.930344,140.522995 
	C57.067188,143.009277 54.236523,145.911652 50.848892,147.306808 
	C47.581818,148.652328 47.100330,150.326874 47.643482,153.165680 
	C46.075592,151.048645 44.507706,148.931610 43.157223,146.329285 
	C51.732090,138.576889 60.181210,131.411896 68.422874,124.015724 
	C77.861710,115.545204 87.079262,106.828331 96.495880,98.332558 
	C97.734016,97.215508 99.581062,96.773361 101.146095,96.018631 
z"/>
<path fill="#423E3F" opacity="1.000000" stroke="none" 
	d="
M521.655396,141.000122 
	C521.655273,152.772629 521.655273,164.045120 521.655273,175.671036 
	C519.111267,175.671036 516.870483,175.671036 514.273743,175.671036 
	C514.273743,155.707489 514.273743,135.524277 514.273743,114.956429 
	C516.373718,114.956429 518.595886,114.956429 521.655457,114.956429 
	C521.655457,123.392654 521.655457,131.946396 521.655396,141.000122 
z"/>
<path fill="#76C7ED" opacity="1.000000" stroke="none" 
	d="
M101.074249,95.682220 
	C99.581062,96.773361 97.734016,97.215508 96.495880,98.332558 
	C87.079262,106.828331 77.861710,115.545204 68.422874,124.015724 
	C60.181210,131.411896 51.732090,138.576889 43.047157,145.999329 
	C41.447655,144.034378 40.175629,141.914108 38.785339,139.465668 
	C42.880947,136.155319 47.374859,133.496582 51.258793,130.133423 
	C65.812401,117.531204 80.156891,104.687645 94.626358,91.987640 
	C95.300156,91.396248 96.422859,91.316315 97.710297,90.990646 
	C99.056862,92.437340 100.029633,93.891571 101.074249,95.682220 
z"/>
<path fill="#94D2F0" opacity="1.000000" stroke="none" 
	d="
M54.934265,167.047607 
	C53.578770,164.710159 52.223270,162.372726 50.983604,159.376770 
	C51.399933,158.145920 51.700424,157.573578 52.367382,156.996735 
	C53.376965,156.853790 54.198620,156.922958 54.636757,156.546173 
	C62.932816,149.411987 71.125725,142.157013 79.463173,135.072021 
	C85.486420,129.953598 91.689232,125.046471 97.848953,120.391159 
	C96.569168,123.159996 95.252388,125.582771 93.733276,128.274139 
	C90.849121,132.720856 88.167290,136.898972 85.149429,141.173004 
	C84.566917,141.876007 84.320435,142.483109 84.109512,143.095978 
	C84.145073,143.101746 84.181801,143.163712 83.818115,143.163986 
	C71.786430,148.544495 63.688751,158.188217 54.934265,167.047607 
z"/>
<path fill="#87CDEF" opacity="1.000000" stroke="none" 
	d="
M52.000916,157.001221 
	C51.700424,157.573578 51.399933,158.145920 50.982147,159.026718 
	C49.815121,157.843628 48.765388,156.352081 47.915264,154.404846 
	C48.219284,153.843277 48.323692,153.737396 48.428101,153.631516 
	C48.217178,153.462723 48.006256,153.293945 47.795334,153.125153 
	C47.795334,153.125153 47.724243,153.165024 47.683861,153.165344 
	C47.100330,150.326874 47.581818,148.652328 50.848892,147.306808 
	C54.236523,145.911652 57.067188,143.009277 59.930344,140.522995 
	C70.681885,131.186661 81.429077,121.841797 92.001297,112.304359 
	C95.789459,108.886955 99.077248,104.914909 102.923584,101.043167 
	C104.045784,101.766045 104.837822,102.641769 105.817139,103.749939 
	C106.025276,104.228592 106.046112,104.474808 106.039421,105.404579 
	C104.078835,109.176041 102.145775,112.263939 100.013824,115.051079 
	C98.008171,115.196266 95.909958,115.210411 94.461853,116.187767 
	C92.200027,117.714348 90.452919,119.979851 88.358078,121.781540 
	C77.758827,130.897491 67.002731,139.836243 56.585766,149.154755 
	C54.437145,151.076782 53.497681,154.350494 52.000916,157.001221 
z"/>
<path fill="#A0D6F2" opacity="1.000000" stroke="none" 
	d="
M54.989056,167.389282 
	C63.688751,158.188217 71.786430,148.544495 83.757874,143.512161 
	C82.310684,147.199295 80.560059,150.538544 78.809441,153.877792 
	C76.531746,157.798798 74.254044,161.719788 71.332001,165.851852 
	C66.747002,168.743942 62.806343,171.424973 58.865685,174.106018 
	C57.591736,171.980988 56.317791,169.855957 54.989056,167.389282 
z"/>
<path fill="#423F40" opacity="1.000000" stroke="none" 
	d="
M657.206665,99.217911 
	C663.747559,95.230545 670.078369,97.382568 671.013062,103.590759 
	C671.629944,107.687523 670.066589,110.980492 666.298706,112.553078 
	C662.890625,113.975487 659.333923,113.593338 656.808350,110.429008 
	C653.936340,106.830528 654.146240,103.109856 657.206665,99.217911 
M666.263672,103.537300 
	C665.172302,106.485123 665.172302,106.485123 667.968140,108.340645 
	C670.007446,103.045464 669.046265,100.813034 664.198547,100.034760 
	C664.964050,101.042046 665.637817,101.928566 666.263672,103.537300 
z"/>
<path fill="#ADDBF3" opacity="1.000000" stroke="none" 
	d="
M58.952072,174.443695 
	C62.806343,171.424973 66.747002,168.743942 71.112305,166.091675 
	C68.752991,174.325790 68.068405,182.654388 70.040588,191.566437 
	C66.354675,186.255310 62.696560,180.518341 58.952072,174.443695 
z"/>
<path fill="#ADDBF3" opacity="1.000000" stroke="none" 
	d="
M144.197723,173.430908 
	C146.370651,174.867996 148.581390,176.711945 150.945251,178.884033 
	C148.716599,183.785385 146.334808,188.358597 143.642151,193.044296 
	C143.632690,186.717117 143.934113,180.277451 144.197723,173.430908 
z"/>
<path fill="#79C9EE" opacity="1.000000" stroke="none" 
	d="
M175.344025,138.213959 
	C175.263626,138.031723 175.406860,137.671371 175.809967,137.168091 
	C175.902435,137.362076 175.735046,137.698959 175.344025,138.213959 
z"/>
<path fill="#79C9EE" opacity="1.000000" stroke="none" 
	d="
M176.259827,136.976578 
	C176.087067,136.747864 176.236908,136.478958 176.682312,136.143860 
	C176.909119,136.383682 176.777283,136.669922 176.259827,136.976578 
z"/>
<path fill="#7FCBEF" opacity="1.000000" stroke="none" 
	d="
M47.691933,153.369583 
	C48.006256,153.293945 48.217178,153.462723 48.428101,153.631516 
	C48.323692,153.737396 48.219284,153.843277 47.901676,154.042236 
	C47.655167,153.961548 47.621849,153.787781 47.691933,153.369583 
z"/>
<path fill="#61BFEB" opacity="1.000000" stroke="none" 
	d="
M81.704422,78.022598 
	C81.777512,78.269455 81.562279,78.515381 81.100952,78.812332 
	C81.041939,78.582802 81.229012,78.302238 81.704422,78.022598 
z"/>
<path fill="#6FC4ED" opacity="1.000000" stroke="none" 
	d="
M90.037323,82.657257 
	C89.827179,82.704124 89.525620,82.491112 89.153938,81.999428 
	C89.371178,81.946304 89.658539,82.171837 90.037323,82.657257 
z"/>
<path fill="#7661A8" opacity="1.000000" stroke="none" 
	d="
M79.104057,154.096283 
	C80.560059,150.538544 82.310684,147.199295 84.121552,143.511887 
	C84.181801,143.163712 84.145073,143.101746 84.394119,142.950699 
	C84.923927,142.225464 85.204704,141.651276 85.485474,141.077087 
	C88.167290,136.898972 90.849121,132.720856 94.107788,128.210983 
	C98.077202,126.919434 101.454109,125.899323 104.865845,125.013298 
	C110.684677,123.502159 115.192627,127.304535 120.239990,128.919006 
	C124.190979,135.664658 128.141968,142.410294 131.894165,149.686859 
	C132.516739,151.127686 133.338074,152.037598 134.159424,152.947495 
	C134.483093,153.413345 134.806763,153.879181 134.965897,154.725616 
	C134.714432,155.218323 134.627502,155.330444 134.540573,155.442566 
	C134.761444,155.586868 134.982300,155.731186 135.203156,155.875504 
	C135.203156,155.875504 135.268143,155.829941 135.307602,155.821716 
	C133.270203,164.227768 131.656525,172.792816 128.980652,181.012070 
	C126.515701,188.583450 122.386642,195.120224 114.663879,199.040848 
	C108.173225,202.335953 100.843773,200.836243 94.829086,196.709015 
	C85.649010,190.409683 84.534843,180.747833 82.067558,171.589859 
	C80.560959,165.997726 80.247833,160.084045 79.104057,154.096283 
M120.612312,169.686111 
	C120.927406,162.652359 121.952599,155.789017 118.354858,148.878586 
	C115.997032,144.349777 113.242622,141.521805 108.465782,141.092041 
	C103.153656,140.614151 97.815468,142.433929 95.729340,147.246216 
	C91.426468,157.172104 90.672653,167.851044 96.582306,177.322556 
	C98.648392,180.633911 104.030418,183.339111 108.066742,183.588074 
	C113.112442,183.899292 117.075821,179.895874 118.936180,174.743134 
	C119.443123,173.339020 119.840424,171.895309 120.612312,169.686111 
z"/>
<path fill="#6C5EA6" opacity="1.000000" stroke="none" 
	d="
M120.127502,128.585068 
	C115.192627,127.304535 110.684677,123.502159 104.865845,125.013298 
	C101.454109,125.899323 98.077202,126.919434 94.310120,127.942398 
	C95.252388,125.582771 96.569168,123.159996 98.013084,120.090210 
	C98.831047,118.079414 99.521881,116.715630 100.212708,115.351837 
	C102.145775,112.263939 104.078835,109.176041 106.090363,105.771698 
	C109.414146,110.679054 112.682243,115.888908 115.894394,121.133018 
	C117.325958,123.470177 118.644936,125.876305 120.127502,128.585068 
z"/>
<path fill="#6C5EA6" opacity="1.000000" stroke="none" 
	d="
M134.091675,152.643890 
	C133.338074,152.037598 132.516739,151.127686 131.977875,150.032227 
	C132.848221,150.677872 133.436081,151.509079 134.091675,152.643890 
z"/>
<path fill="#6C5EA6" opacity="1.000000" stroke="none" 
	d="
M135.258545,155.638458 
	C134.982300,155.731186 134.761444,155.586868 134.540573,155.442566 
	C134.627502,155.330444 134.714432,155.218323 135.000488,155.017181 
	C135.199600,154.928162 135.313934,155.401398 135.258545,155.638458 
z"/>
<path fill="#8BD0F0" opacity="1.000000" stroke="none" 
	d="
M100.013824,115.051086 
	C99.521881,116.715630 98.831047,118.079414 97.976089,119.744156 
	C91.689232,125.046471 85.486420,129.953598 79.463173,135.072021 
	C71.125725,142.157013 62.932816,149.411987 54.636757,156.546173 
	C54.198620,156.922958 53.376965,156.853790 52.367386,156.996735 
	C53.497681,154.350494 54.437145,151.076782 56.585766,149.154755 
	C67.002731,139.836243 77.758827,130.897491 88.358078,121.781540 
	C90.452919,119.979851 92.200027,117.714348 94.461853,116.187767 
	C95.909958,115.210411 98.008171,115.196266 100.013824,115.051086 
z"/>
<path fill="#A0D6F2" opacity="1.000000" stroke="none" 
	d="
M85.149437,141.173004 
	C85.204704,141.651276 84.923927,142.225464 84.358559,142.944916 
	C84.320435,142.483109 84.566917,141.876007 85.149437,141.173004 
z"/>
<path fill="#FFFFFF" opacity="1.000000" stroke="none" 
	d="
M666.287598,103.176193 
	C665.637817,101.928566 664.964050,101.042046 664.198547,100.034760 
	C669.046265,100.813034 670.007446,103.045464 667.968140,108.340645 
	C665.172302,106.485123 665.172302,106.485123 666.287598,103.176193 
z"/>
<path fill="#8065AA" opacity="1.000000" stroke="none" 
	d="
M120.450180,170.077942 
	C119.840424,171.895309 119.443123,173.339020 118.936180,174.743134 
	C117.075821,179.895874 113.112442,183.899292 108.066742,183.588074 
	C104.030418,183.339111 98.648392,180.633911 96.582306,177.322556 
	C90.672653,167.851044 91.426468,157.172104 95.729340,147.246216 
	C97.815468,142.433929 103.153656,140.614151 108.465782,141.092041 
	C113.242622,141.521805 115.997032,144.349777 118.354858,148.878586 
	C121.952599,155.789017 120.927406,162.652359 120.450180,170.077942 
z"/>
</svg>